<?xml version="1.0" standalone="no"?>
<!DOCTYPE svg PUBLIC "-//W3C//DTD SVG 20010904//EN"
 "http://www.w3.org/TR/2001/REC-SVG-20010904/DTD/svg10.dtd">
<svg version="1.0" xmlns="http://www.w3.org/2000/svg"
 width="512.000000pt" height="512.000000pt" viewBox="0 0 512.000000 512.000000"
 preserveAspectRatio="xMidYMid meet">
<metadata>
Created by potrace 1.11, written by Peter Selinger 2001-2013
</metadata>
<g transform="translate(0.000000,512.000000) scale(0.100000,-0.100000)"
fill="#000000" stroke="none">
<path d="M2088 4369 c-17 -9 -18 -56 -18 -759 l0 -750 25 -6 c20 -5 44 7 117
57 50 34 96 62 103 62 6 0 52 -27 103 -61 50 -34 97 -62 105 -62 37 0 37 8 37
681 l0 658 -22 24 c-31 33 -200 99 -418 162 -8 2 -23 0 -32 -6z"/>
<path d="M3433 3990 c-57 -5 -78 -11 -98 -30 -31 -29 -32 -68 -4 -104 l20 -26
217 6 c310 9 545 -18 805 -92 76 -22 93 -24 118 -14 49 21 64 74 34 117 -31
45 -332 116 -604 143 -111 11 -371 11 -488 0z"/>
<path d="M2960 3905 c-106 -31 -126 -41 -140 -74 -14 -35 0 -74 35 -97 27 -18
42 -16 187 27 55 16 71 25 83 49 26 50 0 102 -55 114 -14 2 -63 -6 -110 -19z"/>
<path d="M161 3903 c-51 -18 -109 -72 -136 -128 -20 -39 -20 -68 -20 -1465 l0
-1425 21 -40 c30 -55 70 -94 124 -119 l45 -21 2365 0 2365 0 45 21 c54 25 94
64 124 119 l21 40 3 1395 c2 950 -1 1411 -8 1445 -24 115 -116 186 -247 193
l-73 4 0 -1419 c0 -1412 0 -1419 -20 -1441 -11 -12 -31 -24 -43 -27 -12 -3
-995 -4 -2184 -3 l-2162 3 -23 23 -23 23 -3 1419 -2 1420 -63 -1 c-34 0 -82
-8 -106 -16z"/>
<path d="M3432 3660 c-191 -19 -485 -80 -562 -118 -66 -32 -73 -100 -14 -138
25 -17 29 -17 88 -1 294 82 440 101 777 102 317 0 319 1 319 62 0 49 -15 71
-58 83 -49 14 -432 21 -550 10z"/>
<path d="M4240 3570 c-28 -28 -26 -81 3 -107 20 -20 189 -73 230 -73 28 0 67
45 67 78 0 48 -27 70 -120 97 -105 30 -153 32 -180 5z"/>
<path d="M3666 3317 c-32 -32 -34 -79 -6 -107 24 -24 32 -26 206 -39 174 -14
277 -31 465 -78 141 -35 148 -36 173 -20 45 30 47 103 3 131 -68 45 -458 119
-694 132 -121 7 -121 7 -147 -19z"/>
<path d="M3290 3313 c-221 -36 -416 -87 -449 -119 -34 -32 -33 -80 3 -111 33
-28 43 -28 126 -3 88 27 227 56 352 75 119 18 142 33 142 91 0 64 -57 86 -174
67z"/>
<path d="M3435 2999 c-195 -18 -529 -89 -583 -125 -50 -33 -48 -96 4 -130 25
-17 29 -17 107 5 482 132 935 134 1401 6 50 -14 99 -25 109 -25 28 0 67 45 67
78 0 51 -27 71 -139 102 -301 84 -661 117 -966 89z"/>
<path d="M3440 2669 c-233 -22 -551 -94 -598 -134 -33 -28 -34 -76 -2 -110 30
-32 41 -31 175 5 219 58 463 90 693 90 117 0 124 1 147 25 32 31 32 66 1 102
l-24 28 -149 1 c-81 1 -191 -2 -243 -7z"/>
<path d="M4080 2612 c-33 -33 -36 -48 -19 -85 14 -31 35 -40 134 -62 44 -9
119 -28 167 -41 48 -13 96 -24 108 -24 32 0 70 44 70 80 0 54 -33 73 -197 113
-223 55 -226 55 -263 19z"/>
<path d="M3440 2339 c-236 -23 -552 -94 -598 -134 -35 -31 -35 -80 2 -112 34
-29 39 -29 166 6 421 117 879 120 1300 8 164 -43 174 -44 204 -13 31 30 34 74
9 105 -28 34 -269 96 -493 127 -132 18 -465 26 -590 13z"/>
<path d="M3500 2010 c-72 -9 -86 -16 -100 -51 -16 -36 2 -85 34 -95 11 -4 125
-8 251 -9 250 -2 395 -19 596 -71 192 -49 194 -49 223 -31 29 19 41 55 32 93
-9 33 -59 55 -214 93 -273 67 -618 97 -822 71z"/>
<path d="M2990 1929 c-126 -33 -156 -48 -170 -85 -14 -36 11 -91 45 -100 28
-7 23 -8 190 35 93 24 125 37 143 57 29 33 28 69 -3 99 -32 33 -62 32 -205 -6z"/>
</g>
</svg>
